<?xml version="1.0" encoding="utf-8"?>
<svg version="1.1" id="Capa_1" xmlns="http://www.w3.org/2000/svg" xmlns:xlink="http://www.w3.org/1999/xlink" x="0px" y="0px"
viewBox="0 420 1080 250" xml:space="preserve">

<style type="text/css">
.st0{fill:#0085CB;}
</style>

<g>
<path class="st0" d="M219.49,519.81h-62.4l-25.41,98.72c-0.96,3.53-1.92,12.86-1.92,17.04c0,4.19,0.32,6.45,1.92,11.26H41
c8.04-11.58,10.62-17.37,15.76-36.67l23.15-90.36H45.17l7.73-30.57h35.05l2.24-8.34c6.77-26.06,10.62-33.15,23.17-40.53
c9.34-5.79,21.23-8.03,42.46-8.03h88.44l-4.5,35.7c-7.4-3.87-13.5-5.15-24.45-5.15h-23.48c-17.37,0-20.24,1.29-22.52,10.28
l-4.18,16.08h62.4L219.49,519.81z"/>
<path class="st0" d="M397.42,454.6c20.25,0,30.55,3.87,39.23,15.12c5.15,6.76,8.37,16.39,8.37,26.04c0,4.83-0.65,9.97-2.91,17.7
l-14.79,57.89c-4.5,17.03-8.36,23.79-18.33,31.49c-9.33,7.09-19.93,9.35-44.7,9.35h-95.2c-24.76,0-29.59-0.97-38.27-8.37
c-9.32-7.72-14.15-18.66-14.15-30.86c0-4.53,0.66-7.73,1.95-13.52l18-69.14c3.54-13.83,12.22-25.09,23.79-30.23
c9.34-4.19,19.95-5.48,41.49-5.48H397.42z M294.83,563.63c-1.61,7.4-1.61,8.04-1.61,9.34c0,6.1,4.49,8.67,14.8,8.67h22.82
c14.16,0,17.05-1.94,19.95-13.5l15.75-61.11c1.92-6.75,2.25-8.68,2.25-11.26c0-7.4-4.82-10.6-16.41-10.6h-19.29
c-14.78,0-18.64,2.56-21.53,13.82L294.83,563.63z"/>
<path class="st0" d="M532.21,462.01l-0.3,10.93l-0.97,8.36c11.25-20.9,20.56-26.68,44.04-26.68h43.75l-13.49,51.45
c-6.77-5.47-14.81-8.04-26.39-8.04h-27.02c-13.82,0-18.65,3.22-21.54,13.5l-18.64,72.38c-0.97,3.53-1.96,12.52-1.96,17.04
c0,4.17,0.34,6.42,1.96,11.25h-90.71c8.03-11.58,10.62-17.7,15.77-36.66l23.79-92.62c1.27-4.18,2.25-12.55,2.25-17.07
c0-3.84-0.32-6.42-2.25-11.23h72.36L532.21,462.01z"/>
<path class="st0" d="M718.67,581.64h55.3c12.55,0,17.7-0.97,31.2-5.8L787.8,612.2H593.88l113.21-127.04h-47.93
c-18.97,0-26.71,1.28-42.46,6.73l13.84-37.29h200.7L718.67,581.64z"/>
<path class="st0" d="M996.89,454.61c13.81,0,20.59,2.24,28.62,9.32c8.04,7.71,13.49,19.61,13.49,30.23
c0,5.14-1.28,14.16-3.19,21.56l-17.7,68.18c-1.29,4.18-2.26,12.52-2.26,17.04c0,3.86,0.33,6.42,2.26,11.24h-76.23
c-1.59-4.82-1.92-6.74-1.92-10.92v-4.51c-6.11,10.94-14.81,15.43-30.56,15.43h-45.66c-15.43,0-25.73-3.2-34.1-10.28
c-8.99-7.41-13.49-17.37-13.49-27.99c0-4.18,0.63-9.63,2.22-14.78l3.88-15.11c4.19-16.42,9.66-25.08,19.31-31.2
c8.04-4.83,14.47-6.11,32.14-6.11h73.66c8.05,0,8.37,0,10.94-1.93c2.22-2.25,4.18-6.76,4.18-11.25c0-6.45-4.18-8.37-16.73-8.37
h-76.54c-15.76,0-24.12,1.62-33.45,6.1l17.03-36.65H996.89z M915.19,536.92c-12.86,0-14.78,1.61-17.68,12.86l-4.18,16.08
c-1.29,4.51-1.29,4.83-1.29,6.44c0,7.08,3.53,9.34,15.11,9.34h18.98c13.51,0,14.79-0.97,17.67-11.28l8.69-33.45H915.19z"/>
<path class="st0" d="M171.46,643.14c-1.07,2.51-0.93,3.5-0.51,4.53h-19.98c1.3-1.03,2.27-2.02,3.35-4.53l7.36-17.35
c1.07-2.51,0.92-3.51,0.09-4.53h36.82c6.69,0,10.94,1.07,8.66,6.43l-1.75,4.13c-2.28,5.36-7.44,6.45-14.13,6.45h-17.83
L171.46,643.14z M175.39,633.88h8.99c2.44,0.05,3.28-0.4,4.06-2.27l1.58-3.7c0.8-1.87,0.34-2.31-2.13-2.28h-9.01L175.39,633.88z"/>
<path class="st0" d="M210.96,629.02c2.43-5.69,7.39-7.76,14.67-7.76h25.73c7.31,0,10.53,2.06,8.1,7.76l-4.61,10.88
c-2.44,5.7-7.37,7.76-14.68,7.76h-25.74c-7.3,0-10.5-2.06-8.09-7.76L210.96,629.02z M222.77,641.59c-0.53,1.29,0.42,1.7,2.66,1.7
h7.44c2.26,0,3.56-0.42,4.1-1.7l6.05-14.27c0.55-1.28-0.39-1.69-2.66-1.69h-7.44c-2.26,0-3.56,0.41-4.1,1.69L222.77,641.59z"/>
<path class="st0" d="M296.73,647.66h16.58l18.73-22.41c2.26-2.67,4.02-3.5,4.93-4h-10.89c0.3,0.45,0.18,1.07-0.09,1.74
c-0.31,0.7-0.86,1.64-1.67,2.6l-10.56,12.74h-0.12l-0.14-17.08h-17.15l-14.26,17.04h-0.14l0.19-12.7c0.04-1.07,0.18-1.77,0.55-2.6
c0.38-0.9,0.72-1.24,1.3-1.74h-20.38c0.69,0.84,1.38,1.74,1.44,3.42l0.28,22.98h16.38l14.68-17.49h0.11L296.73,647.66z"/>
<path class="st0" d="M361.21,643.29c4,0,6.13-0.36,8.03-0.71l-3.72,5.08h-39.61c1.26-1.04,2.25-2.02,3.32-4.52l7.36-17.34
c1.08-2.51,0.93-3.51,0.52-4.53h38.94l-0.75,5.07c-1.69-0.33-3.49-0.71-7.5-0.71h-13.99l-2.64,6.2h12.25
c3.92,0,6.05-0.37,8.01-0.69L369,636.9c-1.7-0.34-3.5-0.71-7.45-0.71h-12.23l-3.01,7.09H361.21z"/>
<path class="st0" d="M392.91,636.19l-2.96,6.94c-1.07,2.51-0.93,3.49-0.52,4.54h-19.96c1.28-1.05,2.27-2.03,3.34-4.54l7.36-17.34
c1.07-2.51,0.93-3.51,0.1-4.53h36.98c7.87,0,11.06,1.4,9.17,5.82l-2.05,4.87c-1.66,3.88-4.98,4.1-8.7,4.24l2.96,7.44
c0.67,1.68,0.94,3.05,2,4.04h-19.19l-3.28-11.48H392.91z M394.75,631.82h9.7c2.18,0,2.89-0.21,3.44-1.48l1.36-3.22
c0.56-1.27,0-1.49-2.17-1.49h-9.71L394.75,631.82z"/>
<path class="st0" d="M503.04,621.26l-0.91,5.46c-1.59-0.71-2.78-1.1-5.92-1.1h-7.81l-7.42,17.51c-1.07,2.51-0.94,3.51-0.52,4.53
h-19.97c1.28-1.02,2.27-2.02,3.34-4.53l7.44-17.51h-7.83c-3.16,0-4.64,0.39-6.83,1.1l3.69-5.46H503.04z"/>
<path class="st0" d="M530.24,643.29c4.01,0,6.12-0.36,8.02-0.71l-3.71,5.08h-39.62c1.26-1.04,2.25-2.02,3.33-4.52l7.36-17.34
c1.07-2.51,0.92-3.51,0.52-4.53h38.93l-0.75,5.07c-1.68-0.33-3.5-0.71-7.51-0.71h-13.97l-2.64,6.2h12.23
c3.92,0,6.06-0.37,8.03-0.69L538,636.9c-1.69-0.34-3.49-0.71-7.44-0.71h-12.22l-3.01,7.09H530.24z"/>
<path class="st0" d="M588.79,621.26h-27c-7.3,0-12.24,2.06-14.68,7.76l-4.61,10.88c-2.41,5.69,0.79,7.76,8.09,7.76h27.71l3.74-5.37
c-2.61,0.71-3.86,0.99-10.73,0.99h-9.7c-2.26,0-3.21-0.41-2.66-1.69l6.07-14.26c0.52-1.28,1.82-1.71,4.08-1.71h12.29
c3.32,0,4.87,0.3,6.6,0.72L588.79,621.26z"/>
<path class="st0" d="M620.13,631.82l2.56-6.03c1.07-2.51,0.94-3.51,0.52-4.53h19.94c-1.26,1.02-2.25,2.02-3.31,4.53l-7.35,17.34
c-1.08,2.51-0.94,3.49-0.52,4.54h-19.98c1.31-1.05,2.28-2.03,3.34-4.54l2.95-6.94h-12.79l-2.94,6.94
c-1.09,2.51-0.93,3.49-0.52,4.54h-19.98c1.31-1.05,2.28-2.03,3.35-4.54l7.35-17.34c1.07-2.51,0.93-3.51,0.52-4.53h19.98
c-1.31,1.02-2.27,2.02-3.35,4.53l-2.56,6.03H620.13z"/>
<path class="st0" d="M663.59,647.66h22.2l9.19-21.66c1.26-2.97,1.72-3.51,3.72-4.74h-10.84c0.96,1.24,0.94,1.77-0.31,4.74
l-7.14,16.8h-0.22l-9.11-21.55h-24.1c0.95,1.24,0.93,1.77-0.34,4.74l-7.19,16.91c-1.26,2.98-1.7,3.51-3.69,4.75h10.82
c-0.96-1.24-0.94-1.77,0.33-4.75l7.28-17.12h0.12L663.59,647.66z"/>
<path class="st0" d="M699.9,629.02c2.41-5.69,7.36-7.76,14.67-7.76h25.73c7.31,0,10.52,2.06,8.09,7.76l-4.61,10.88
c-2.43,5.7-7.38,7.76-14.68,7.76h-25.73c-7.3,0-10.52-2.06-8.09-7.76L699.9,629.02z M711.7,641.59c-0.53,1.29,0.4,1.7,2.66,1.7
h7.45c2.26,0,3.56-0.42,4.09-1.7l6.06-14.27c0.53-1.28-0.4-1.69-2.66-1.69h-7.45c-2.26,0-3.54,0.41-4.08,1.69L711.7,641.59z"/>
<path class="st0" d="M780.68,643.29c1.99,0,5.56-0.15,7.76-0.85l-3.69,5.22h-38.79c1.28-1.04,2.25-2.02,3.33-4.52l7.36-17.34
c1.07-2.51,0.93-3.51,0.51-4.53h19.97c-1.27,1.02-2.26,2.02-3.33,4.53l-7.45,17.49H780.68z"/>
<path class="st0" d="M796.1,629.02c2.43-5.69,7.37-7.76,14.67-7.76h25.74c7.3,0,10.5,2.06,8.1,7.76l-4.64,10.88
c-2.43,5.7-7.37,7.76-14.67,7.76h-25.73c-7.31,0-10.49-2.06-8.1-7.76L796.1,629.02z M807.92,641.59c-0.55,1.29,0.4,1.7,2.65,1.7
h7.45c2.25,0,3.55-0.42,4.09-1.7l6.06-14.27c0.56-1.28-0.4-1.69-2.65-1.69h-7.45c-2.26,0-3.55,0.41-4.09,1.69L807.92,641.59z"/>
<path class="st0" d="M897.81,631.82c-2.66,1.77-3.08,2.32-3.86,4.13l-2.76,6.52c-1.4,3.27-1.35,3.79-0.39,5.2H875.7l0.47-2.44
h-0.16c-1.43,1.53-2.43,2.44-7.29,2.44h-15.19c-7.3,0-10.49-2.07-8.08-7.76l4.61-10.88c2.44-5.7,7.39-7.76,14.68-7.76h32.88
l-0.8,5.08c-1.74-0.41-3.3-0.71-6.6-0.71h-18.2c-2.26,0-3.56,0.41-4.08,1.7l-6.07,14.28c-0.55,1.29,0.4,1.68,2.66,1.68h5.74
c2.27,0,3.55-0.4,4.09-1.68l2.31-5.41h-6.41c-1.26,0-2.13,0.26-3.09,0.5l2.06-4.87H897.81z"/>
<path class="st0" d="M915.31,647.66c-0.4-1.02-0.52-2.02,0.52-4.53l7.35-17.34c1.07-2.51,2.06-3.51,3.35-4.53h-19.95
c0.4,1.02-0.52,2.02-0.53,4.53l-7.35,17.34c-1.08,2.51-2.06,3.51-3.36,4.53H915.31z"/>
<path class="st0" d="M956.05,643.29c4,0,6.13-0.36,8.02-0.71l-3.69,5.08h-39.65c1.29-1.04,2.27-2.02,3.35-4.52l7.37-17.34
c1.06-2.51,0.91-3.51,0.51-4.53h38.93l-0.74,5.07c-1.69-0.33-3.5-0.71-7.5-0.71h-13.99l-2.63,6.2h12.23c3.92,0,6.05-0.37,8.03-0.69
l-2.45,5.77c-1.7-0.34-3.51-0.71-7.46-0.71h-12.22l-3.01,7.09H956.05z"/>
<path class="st0" d="M1017.54,621.26H985.7c-6.05,0-10.4,2.15-12.15,6.27l-2.51,5.9c-1.86,4.41,0.23,5.75,7.07,5.75h13.97
c2.69,0,3.16,0.2,2.76,1.14l-0.79,1.83c-0.4,0.99-1.04,1.14-3.71,1.14h-16.59c-3.37,0-4.85-0.49-6.32-0.99l-0.8,5.37h30.91
c8.22,0,11.73-2.32,13.52-6.47l2.72-6.44c1.64-3.84-1.67-5.33-8.98-5.33h-12.15c-2.69,0-3.24-0.17-2.82-1.14l0.63-1.49
c0.39-0.95,1.11-1.17,3.79-1.17h15.95c3.3,0,4.72,0.34,6.6,0.88L1017.54,621.26z"/>
</g>
</svg>
